<svg xmlns="http://www.w3.org/2000/svg" viewBox="0 0 500 500"><g id="freepik--background-complete--inject-73"><path d="M458,97.21a28.24,28.24,0,0,0-3.34-6.93,9.61,9.61,0,0,0-6.29-4.1c-2.56-.31-5.39,1.07-6.22,3.51-.37-5.49-1.15-11.12-3.89-15.89s-7.88-8.51-13.37-8.18c-5.18.32-9.61,4.17-12.07,8.73s-3.31,9.8-4.12,14.93c-2-2.41-6.11-1.65-8.16.68s-2.56,5.6-3,8.68h61.75Z" style="fill:#f5f5f5"></path><path d="M281.3,135.38a29,29,0,0,0-3.34-6.94,9.59,9.59,0,0,0-6.3-4.09c-2.55-.31-5.38,1.07-6.22,3.5-.36-5.49-1.14-11.12-3.89-15.88s-7.87-8.52-13.37-8.18c-5.17.32-9.61,4.16-12.07,8.73s-3.31,9.8-4.12,14.92c-2-2.4-6.11-1.65-8.15.69s-2.57,5.6-3,8.68h61.76Z" style="fill:#f5f5f5"></path><path d="M96.74,86.83A28.24,28.24,0,0,0,93.4,79.9a9.61,9.61,0,0,0-6.29-4.1c-2.56-.31-5.39,1.07-6.22,3.51-.37-5.49-1.15-11.12-3.89-15.89s-7.88-8.51-13.37-8.18C58.45,55.56,54,59.41,51.56,64s-3.31,9.8-4.12,14.93c-2-2.41-6.11-1.65-8.16.68s-2.56,5.6-3,8.68H98Z" style="fill:#f5f5f5"></path><rect x="188.61" y="289.27" width="16.15" height="55.51" transform="translate(393.37 634.06) rotate(180)" style="fill:#f5f5f5"></rect><path d="M257.92,289.09s-.79-.53.95-2.82-.95-3.52-.95-3.52c-7.63,4.4-18.28,0-18.28,0s12.56-3.88,14.15-7.58c1.18-2.76-.91-3.07-2-3.05,1.29-.13,4.06-.59,4.91-2.06,1.11-1.94-3.26-4.23-3.26-4.23a3.42,3.42,0,0,0,0-3c-.71-1.94-17.09-4.76-17.09-4.76,4.77.53,6.52-4.23,6.52-4.23s8.11.17,10-3-1.27-4-6.67-6.69-17.33-12.51-17.33-12.51,7.47-.71,9.54-2.47.15-2.12.15-2.12c8.91.88,5.89-3.87,5.89-3.87a39.8,39.8,0,0,1-18.29-11.81s5.57-1.23,8.43-3.88-2.39-3.34-2.39-3.34,10.5-1.41,4.46-5.29c-4.6-3-11.94-6.91-14.23-8.1,2.51.92,8.18-.18,8.18-.18,6.68-3,0-7.4,0-7.4-7.79-4.41-19.23-15.51-19.23-15.51s5.72,3,8.58,2.11-3.18-4.4-3.18-4.4,3,.88,4.3,0-3.34-4.94-3.34-4.94c-6.86-4.45-15.31-16.14-18.84-21.16-3.53,5-12,16.71-18.84,21.16,0,0-4.61,4.06-3.33,4.94s4.29,0,4.29,0-6,3.52-3.18,4.4,8.58-2.11,8.58-2.11-11.44,11.1-19.23,15.51c0,0-6.68,4.4,0,7.4,0,0,5.67,1.1,8.18.18-2.29,1.19-9.63,5.15-14.23,8.1-6,3.88,4.46,5.29,4.46,5.29s-5.25.7-2.39,3.34,8.43,3.88,8.43,3.88a39.8,39.8,0,0,1-18.29,11.81s-3,4.75,5.89,3.87c0,0-1.91.36.16,2.12s9.53,2.47,9.53,2.47-11.92,9.86-17.32,12.51-8.59,3.52-6.68,6.69,10,3,10,3,1.75,4.76,6.52,4.23c0,0-16.37,2.82-17.09,4.76a3.42,3.42,0,0,0,0,3s-4.37,2.29-3.26,4.23c.85,1.47,3.62,1.93,4.91,2.06-1.14,0-3.23.29-2,3.05,1.59,3.7,14.15,7.58,14.15,7.58s-10.65,4.4-18.28,0c0,0-2.7,1.23-1,3.52s1,2.82,1,2.82-4-3-2.23,1.59,11,7.4,11,7.4-5.24.88-3.65,3.7,8.27,6.17,15.58,6.87,17.17-1.94,17.17-1.94-6.68,3.53-2.07,5.47,9.86-2.47,9.86-2.47-1,4.51,2.86,3a26,26,0,0,0,7-4.55s1.19,6.65,3.57,5.06c2.38,1.59,3.57-5.06,3.57-5.06a26,26,0,0,0,7,4.55c3.82,1.55,2.86-3,2.86-3s5.25,4.4,9.86,2.47-2.07-5.47-2.07-5.47,9.86,2.65,17.17,1.94,14-4,15.58-6.87-3.65-3.7-3.65-3.7,9.22-2.82,11-7.4S257.92,289.09,257.92,289.09Z" style="fill:#ebebeb"></path><path d="M222.09,183.72l-.25-.11A.71.71,0,0,1,222.09,183.72Z"></path><rect x="50.21" y="309.67" width="10.16" height="34.94" transform="translate(110.58 654.29) rotate(180)" style="fill:#ebebeb"></rect><path d="M93.83,309.56s-.5-.34.61-1.78a1.4,1.4,0,0,0-.61-2.22c-4.8,2.78-11.5,0-11.5,0s7.9-2.44,8.9-4.77c.75-1.74-.57-1.93-1.28-1.91.8-.09,2.55-.37,3.08-1.3.7-1.22-2-2.66-2-2.66A2.16,2.16,0,0,0,91,293c-.45-1.22-10.76-3-10.76-3,3,.33,4.11-2.67,4.11-2.67s5.1.11,6.3-1.88-.8-2.55-4.2-4.22-10.91-7.87-10.91-7.87,4.7-.45,6-1.56.1-1.33.1-1.33c5.6.56,3.7-2.44,3.7-2.44a25,25,0,0,1-11.51-7.43s3.5-.77,5.3-2.44-1.5-2.1-1.5-2.1,6.61-.89,2.8-3.33c-2.89-1.86-7.51-4.35-9-5.1,1.58.58,5.15-.12,5.15-.12,4.21-1.88,0-4.65,0-4.65-4.9-2.78-12.11-9.76-12.11-9.76s3.61,1.88,5.41,1.33-2-2.78-2-2.78,1.9.56,2.7,0-2.1-3.1-2.1-3.1c-4.32-2.81-9.64-10.16-11.86-13.32-2.23,3.16-7.54,10.51-11.86,13.32,0,0-2.9,2.55-2.1,3.1s2.7,0,2.7,0-3.8,2.22-2,2.78,5.41-1.33,5.41-1.33-7.21,7-12.11,9.76c0,0-4.21,2.77,0,4.65,0,0,3.57.7,5.15.12-1.44.75-6.07,3.24-9,5.1-3.8,2.44,2.81,3.33,2.81,3.33s-3.31.44-1.5,2.1,5.3,2.44,5.3,2.44A25,25,0,0,1,28,268.07s-1.9,3,3.7,2.44c0,0-1.2.23.1,1.33s6,1.56,6,1.56-7.51,6.21-10.91,7.87-5.4,2.22-4.2,4.22,6.3,1.88,6.3,1.88,1.1,3,4.1,2.67c0,0-10.3,1.77-10.75,3a2.16,2.16,0,0,0,0,1.89s-2.76,1.44-2.05,2.66c.53.93,2.28,1.21,3.08,1.3-.71,0-2,.17-1.28,1.91,1,2.33,8.9,4.77,8.9,4.77s-6.7,2.78-11.51,0a1.4,1.4,0,0,0-.6,2.22c1.1,1.44.6,1.78.6,1.78s-2.5-1.89-1.4,1S25,315.21,25,315.21s-3.3.56-2.3,2.33,5.2,3.89,9.8,4.33,10.81-1.22,10.81-1.22-4.2,2.22-1.3,3.44,6.21-1.56,6.21-1.56-.61,2.84,1.8,1.87a16.5,16.5,0,0,0,4.4-2.86s.75,4.18,2.25,3.18c1.5,1,2.25-3.18,2.25-3.18a16.5,16.5,0,0,0,4.4,2.86c2.4,1,1.8-1.87,1.8-1.87s3.31,2.78,6.21,1.56-1.3-3.44-1.3-3.44,6.2,1.66,10.81,1.22,8.8-2.55,9.8-4.33-2.3-2.33-2.3-2.33,5.8-1.77,6.91-4.65S93.83,309.56,93.83,309.56Z" style="fill:#e0e0e0"></path><path d="M71.28,243.23l-.15-.07Z"></path><rect x="306.94" y="309.84" width="10.16" height="34.94" transform="translate(624.05 654.63) rotate(180)" style="fill:#ebebeb"></rect><path d="M350.57,309.73s-.5-.33.6-1.77a1.4,1.4,0,0,0-.6-2.22c-4.81,2.77-11.51,0-11.51,0S347,303.3,348,301c.74-1.74-.58-1.94-1.29-1.92.81-.09,2.55-.37,3.09-1.3.7-1.22-2-2.66-2-2.66a2.16,2.16,0,0,0,0-1.89c-.45-1.22-10.76-3-10.76-3,3,.33,4.1-2.66,4.1-2.66s5.1.11,6.3-1.89-.8-2.55-4.2-4.21-10.91-7.88-10.91-7.88,4.71-.44,6-1.55.1-1.33.1-1.33c5.6.55,3.7-2.44,3.7-2.44a25.12,25.12,0,0,1-11.51-7.43s3.51-.78,5.31-2.44-1.5-2.11-1.5-2.11,6.6-.89,2.8-3.33c-2.89-1.85-7.52-4.35-9-5.1,1.57.58,5.14-.11,5.14-.11,4.21-1.89,0-4.66,0-4.66-4.9-2.77-12.1-9.76-12.1-9.76s3.6,1.88,5.4,1.33-2-2.77-2-2.77,1.9.55,2.7,0-2.1-3.11-2.1-3.11c-4.32-2.8-9.63-10.16-11.86-13.32-2.22,3.16-7.54,10.52-11.85,13.32,0,0-2.91,2.55-2.11,3.11s2.71,0,2.71,0-3.81,2.21-2,2.77,5.41-1.33,5.41-1.33-7.21,7-12.11,9.76c0,0-4.2,2.77,0,4.66,0,0,3.57.69,5.15.11-1.44.75-6.06,3.25-8.95,5.1-3.81,2.44,2.8,3.33,2.8,3.33s-3.3.44-1.5,2.11,5.3,2.44,5.3,2.44a25,25,0,0,1-11.51,7.43s-1.9,3,3.71,2.44c0,0-1.2.22.1,1.33s6,1.55,6,1.55-7.5,6.21-10.91,7.88-5.4,2.21-4.2,4.21,6.3,1.89,6.3,1.89,1.1,3,4.11,2.66c0,0-10.31,1.77-10.76,3a2.16,2.16,0,0,0,0,1.89s-2.75,1.44-2.05,2.66c.53.93,2.28,1.21,3.08,1.3-.71,0-2,.18-1.28,1.92,1,2.33,8.91,4.77,8.91,4.77s-6.71,2.77-11.51,0a1.4,1.4,0,0,0-.6,2.22c1.1,1.44.6,1.77.6,1.77s-2.5-1.89-1.4,1,6.9,4.66,6.9,4.66-3.3.55-2.3,2.33,5.2,3.88,9.81,4.32,10.8-1.22,10.8-1.22-4.2,2.22-1.3,3.44,6.21-1.55,6.21-1.55-.6,2.84,1.8,1.86a16.5,16.5,0,0,0,4.4-2.86s.75,4.18,2.25,3.18c1.5,1,2.25-3.18,2.25-3.18a16.45,16.45,0,0,0,4.41,2.86c2.4,1,1.8-1.86,1.8-1.86s3.3,2.77,6.2,1.55-1.3-3.44-1.3-3.44,6.2,1.67,10.81,1.22,8.8-2.55,9.8-4.32-2.3-2.33-2.3-2.33,5.81-1.78,6.91-4.66S350.57,309.73,350.57,309.73Z" style="fill:#e0e0e0"></path><path d="M328,243.4l-.16-.07Z"></path><rect x="416.38" y="296.67" width="14" height="48.12" transform="translate(846.77 641.46) rotate(180)" style="fill:#ebebeb"></rect><path d="M476.46,296.51s-.69-.46.83-2.44-.83-3.06-.83-3.06c-6.62,3.82-15.85,0-15.85,0s10.89-3.36,12.27-6.56c1-2.4-.79-2.67-1.77-2.65,1.11-.11,3.51-.51,4.25-1.78,1-1.68-2.83-3.67-2.83-3.67a3,3,0,0,0,0-2.6c-.62-1.68-14.81-4.12-14.81-4.12,4.13.46,5.65-3.67,5.65-3.67s7,.16,8.68-2.59-1.1-3.52-5.79-5.81-15-10.84-15-10.84,6.48-.61,8.27-2.14.14-1.83.14-1.83c7.71.76,5.1-3.36,5.1-3.36a34.5,34.5,0,0,1-15.85-10.24s4.82-1.06,7.3-3.36-2.07-2.9-2.07-2.9,9.1-1.22,3.86-4.58c-4-2.55-10.34-6-12.32-7,2.17.8,7.09-.16,7.09-.16,5.78-2.6,0-6.41,0-6.41-6.76-3.82-16.68-13.44-16.68-13.44s5,2.59,7.44,1.83-2.75-3.82-2.75-3.82,2.62.76,3.72,0-2.9-4.28-2.9-4.28c-5.94-3.86-13.26-14-16.32-18.34C422.2,171,414.88,181.15,408.94,185c0,0-4,3.52-2.89,4.28s3.72,0,3.72,0-5.24,3.05-2.76,3.82,7.44-1.83,7.44-1.83-9.92,9.62-16.67,13.44c0,0-5.79,3.81,0,6.41,0,0,4.92,1,7.09.16-2,1-8.35,4.47-12.33,7-5.23,3.36,3.86,4.58,3.86,4.58s-4.55.61-2.07,2.9,7.31,3.36,7.31,3.36a34.5,34.5,0,0,1-15.85,10.24s-2.62,4.12,5.1,3.36c0,0-1.66.3.14,1.83s8.26,2.14,8.26,2.14-10.33,8.55-15,10.84-7.44,3.06-5.78,5.81,8.68,2.59,8.68,2.59,1.51,4.13,5.65,3.67c0,0-14.2,2.44-14.82,4.12a3,3,0,0,0,0,2.6s-3.79,2-2.82,3.67c.73,1.27,3.14,1.67,4.25,1.78-1,0-2.8.25-1.77,2.65,1.38,3.2,12.26,6.56,12.26,6.56s-9.23,3.82-15.84,0c0,0-2.35,1.07-.83,3.06s.83,2.44.83,2.44-3.45-2.59-1.93,1.38,9.51,6.41,9.51,6.41-4.55.77-3.17,3.21,7.16,5.34,13.5,6,14.88-1.68,14.88-1.68-5.78,3-1.79,4.73,8.55-2.14,8.55-2.14-.83,3.91,2.48,2.57a22.83,22.83,0,0,0,6.06-3.94s1,5.76,3.1,4.38c2.06,1.38,3.1-4.38,3.1-4.38a22.63,22.63,0,0,0,6.06,3.94c3.31,1.34,2.48-2.57,2.48-2.57s4.55,3.82,8.54,2.14-1.79-4.73-1.79-4.73,8.55,2.29,14.88,1.68,12.13-3.52,13.51-6-3.17-3.21-3.17-3.21,8-2.44,9.51-6.41S476.46,296.51,476.46,296.51Z" style="fill:#e0e0e0"></path><path d="M445.4,205.18l-.21-.1A.68.68,0,0,1,445.4,205.18Z"></path><path d="M471,344.79c0,.14-99,.26-221,.26s-221-.12-221-.26,98.93-.26,221-.26S471,344.64,471,344.79Z" style="fill:#e0e0e0"></path><path d="M234.78,397.6a18.73,18.73,0,0,1-3.32-2.92,19.3,19.3,0,0,1-3-3.29,18.24,18.24,0,0,1,3.32,2.92A19.3,19.3,0,0,1,234.78,397.6Z" style="fill:#e0e0e0"></path><path d="M236.88,396.4a9.93,9.93,0,0,1-1.85-3.81,9.81,9.81,0,0,1-.6-4.2c.15,0,.41,1.85,1.1,4.05S237,396.33,236.88,396.4Z" style="fill:#e0e0e0"></path><path d="M241.81,388.35a20,20,0,0,1-1.27,4.24,19.48,19.48,0,0,1-1.76,4.06,18.4,18.4,0,0,1,1.27-4.24A18,18,0,0,1,241.81,388.35Z" style="fill:#e0e0e0"></path><path d="M55.8,374.73a11.61,11.61,0,0,1-3.24-2.91,12.11,12.11,0,0,1-2.37-3.66A40.55,40.55,0,0,1,53,371.48C54.5,373.29,55.9,374.62,55.8,374.73Z" style="fill:#e0e0e0"></path><path d="M58,375a31.15,31.15,0,0,1,.24-8,16.38,16.38,0,0,1,.14,4A16.06,16.06,0,0,1,58,375Z" style="fill:#e0e0e0"></path><path d="M66.94,368.26a17.92,17.92,0,0,1-2.34,3.56,18.41,18.41,0,0,1-2.75,3.25,17.28,17.28,0,0,1,2.33-3.56A17.33,17.33,0,0,1,66.94,368.26Z" style="fill:#e0e0e0"></path><path d="M80.24,427.28a21,21,0,0,1-3.74-2.77,21,21,0,0,1-3.4-3.17,21.36,21.36,0,0,1,3.74,2.77A21,21,0,0,1,80.24,427.28Z" style="fill:#e0e0e0"></path><path d="M82.87,426.44a20.69,20.69,0,0,1,0-6.54,20.69,20.69,0,0,1,0,6.54Z" style="fill:#e0e0e0"></path><path d="M90.88,420.18a12.71,12.71,0,0,1-2.08,4.41,12.53,12.53,0,0,1-3.22,3.66c-.11-.11,1.33-1.72,2.79-3.94S90.74,420.12,90.88,420.18Z" style="fill:#e0e0e0"></path><path d="M298.64,368.22a10.28,10.28,0,0,1-2.42-2.2,10.56,10.56,0,0,1-2-2.55,10.06,10.06,0,0,1,2.42,2.2A10.26,10.26,0,0,1,298.64,368.22Z" style="fill:#e0e0e0"></path><path d="M301.21,367.23a9.55,9.55,0,0,1-1.33-2.87,9.67,9.67,0,0,1-.83-3.05,9.83,9.83,0,0,1,1.32,2.87A9.93,9.93,0,0,1,301.21,367.23Z" style="fill:#e0e0e0"></path><path d="M304.69,367.29a20.16,20.16,0,0,1,1.42-6.26,10.1,10.1,0,0,1-.45,3.19A9.94,9.94,0,0,1,304.69,367.29Z" style="fill:#e0e0e0"></path><path d="M293.35,433a21.25,21.25,0,0,1-3.74-2.93,21.87,21.87,0,0,1-3.4-3.32,22.48,22.48,0,0,1,3.74,2.93A21.87,21.87,0,0,1,293.35,433Z" style="fill:#e0e0e0"></path><path d="M295.82,433a11.8,11.8,0,0,1-1.24-3.32,12.2,12.2,0,0,1-.75-3.46,12.16,12.16,0,0,1,1.25,3.32A12.38,12.38,0,0,1,295.82,433Z" style="fill:#e0e0e0"></path><path d="M301.37,433.27a19.54,19.54,0,0,1,1.19-6.24,19.54,19.54,0,0,1-1.19,6.24Z" style="fill:#e0e0e0"></path><path d="M444.62,394.07a35.18,35.18,0,0,1-5.94-6.25,17.71,17.71,0,0,1,3.16,2.95A18.06,18.06,0,0,1,444.62,394.07Z" style="fill:#e0e0e0"></path><path d="M448.53,393.74a23.74,23.74,0,0,1,0-7.14,24.64,24.64,0,0,1,0,7.14Z" style="fill:#e0e0e0"></path><path d="M454.57,393.79c-.14-.07.48-1.47.93-3.27s.57-3.33.72-3.32a6.69,6.69,0,0,1-.22,3.44A6.85,6.85,0,0,1,454.57,393.79Z" style="fill:#e0e0e0"></path></g><g id="freepik--Floor--inject-73"><path d="M471,455.39c0,.15-99,.26-221,.26s-221-.11-221-.26,98.93-.26,221-.26S471,455.25,471,455.39Z" style="fill:#263238"></path></g><g id="freepik--Plants--inject-73"><path d="M240,415.27a7.59,7.59,0,0,1,4.45,3.93,13.4,13.4,0,0,1,1.26,5.93c.05,3.94-1.67,8.14-3.67,11.54-3.62-2.45-5-7.34-5.54-9.86-.85-4,0-11.72,3.5-11.54" style="fill:#3673FD"></path><path d="M246.63,442.61a6.5,6.5,0,0,1,1.32-6.37A8.57,8.57,0,0,1,254,433.5a3.63,3.63,0,0,1,2.92.89,2.8,2.8,0,0,1,.39,2.78,5.69,5.69,0,0,1-1.81,2.29c-2.62,2.13-5.54,3.71-8.87,3.15" style="fill:#3673FD"></path><path d="M243.92,455.05a4.53,4.53,0,0,1,0-.81c0-.58.07-1.32.12-2.21a22.76,22.76,0,0,1,1.37-7.17,14,14,0,0,1,4.3-5.88,9.71,9.71,0,0,1,1.91-1.14c.23-.11.43-.17.56-.22l.2-.05a14.7,14.7,0,0,0-2.55,1.57A14.45,14.45,0,0,0,245.7,445a24.57,24.57,0,0,0-1.44,7.09c-.08.92-.15,1.68-.21,2.2A5.25,5.25,0,0,1,243.92,455.05Z" style="fill:#263238"></path><path d="M239.84,421.21a1.5,1.5,0,0,1,.08.35l.19,1c.15.86.36,2.12.6,3.67.49,3.1,1.1,7.4,1.67,12.15s1,9.08,1.25,12.21c.13,1.56.23,2.83.28,3.71,0,.41,0,.74.06,1a1.55,1.55,0,0,1,0,.35,1.68,1.68,0,0,1-.06-.35c0-.26-.07-.59-.11-1-.09-.9-.22-2.16-.37-3.69-.31-3.13-.76-7.44-1.33-12.19s-1.15-9.05-1.59-12.16c-.21-1.53-.39-2.78-.51-3.68-.06-.41-.1-.75-.13-1A1.52,1.52,0,0,1,239.84,421.21Z" style="fill:#263238"></path><path d="M241.27,445.68a15.15,15.15,0,0,0-9.58-10c-1.16-.39-2.63-.55-3.43.37s-.41,2.37.17,3.44a12.94,12.94,0,0,0,12.8,6.51" style="fill:#3673FD"></path><path d="M232.68,439.31a3.76,3.76,0,0,1,.73.22,6.26,6.26,0,0,1,.84.32,10.82,10.82,0,0,1,1.07.5,14,14,0,0,1,1.25.72,14.72,14.72,0,0,1,1.36.95,17,17,0,0,1,2.68,2.68,16.52,16.52,0,0,1,1.95,3.26,15,15,0,0,1,.58,1.55,9.64,9.64,0,0,1,.37,1.39,8.7,8.7,0,0,1,.2,1.17,6.81,6.81,0,0,1,.09.9,4.41,4.41,0,0,1,0,.76c-.07,0-.09-1.09-.49-2.78a13.46,13.46,0,0,0-.4-1.37,13.91,13.91,0,0,0-.6-1.51,16,16,0,0,0-4.56-5.84,14.46,14.46,0,0,0-1.31-1,12.06,12.06,0,0,0-1.22-.74C233.7,439.69,232.66,439.37,232.68,439.31Z" style="fill:#263238"></path><path d="M53.3,455.51a16.45,16.45,0,0,1-2.49-3.3,16.65,16.65,0,0,1-2.05-3.58,16.82,16.82,0,0,1,2.49,3.3A16.65,16.65,0,0,1,53.3,455.51Z" style="fill:#263238"></path><path d="M54,446a21.3,21.3,0,0,1,.81,4.65,21.74,21.74,0,0,1,.3,4.72,21.3,21.3,0,0,1-.81-4.65A21.74,21.74,0,0,1,54,446Z" style="fill:#263238"></path><path d="M60.88,448.63a12.91,12.91,0,0,1-1.42,3.48c-.92,1.84-1.39,3.43-1.53,3.4A7.66,7.66,0,0,1,59,451.88,14.83,14.83,0,0,1,60.88,448.63Z" style="fill:#263238"></path><path d="M288.83,455.16a32.43,32.43,0,0,1-4.54-6.89,16.82,16.82,0,0,1,2.49,3.3A16.58,16.58,0,0,1,288.83,455.16Z" style="fill:#263238"></path><path d="M289.53,445.66a21.47,21.47,0,0,1,.81,4.66,21.73,21.73,0,0,1,.3,4.72,20.93,20.93,0,0,1-.81-4.66A21.74,21.74,0,0,1,289.53,445.66Z" style="fill:#263238"></path><path d="M296.41,448.27a12.78,12.78,0,0,1-1.42,3.48c-.92,1.84-1.39,3.43-1.53,3.41a7.66,7.66,0,0,1,1.06-3.63A15.06,15.06,0,0,1,296.41,448.27Z" style="fill:#263238"></path><path d="M453.37,455.65a16.21,16.21,0,0,1-2.48-3.3,16.46,16.46,0,0,1-2.06-3.58,16.38,16.38,0,0,1,2.49,3.3A16.15,16.15,0,0,1,453.37,455.65Z" style="fill:#263238"></path><path d="M454.08,446.16a22.2,22.2,0,0,1,.81,4.65,21.33,21.33,0,0,1,.29,4.72,22,22,0,0,1-.81-4.65A21.33,21.33,0,0,1,454.08,446.16Z" style="fill:#263238"></path><path d="M461,448.77a12.63,12.63,0,0,1-1.43,3.48c-.92,1.84-1.39,3.43-1.52,3.4s.11-1.74,1.05-3.62A14.85,14.85,0,0,1,461,448.77Z" style="fill:#263238"></path></g><g id="freepik--speech-bubble-2--inject-73"><path d="M300.54,88.42l-9,1.6a27,27,0,0,1-12.49,8,27.28,27.28,0,1,1,17.56-16.37h0Z" style="fill:#fafafa"></path><path d="M300.54,88.42,300.3,88l-.74-1.3-2.89-5.08a.07.07,0,0,0-.09,0l0,0h0l.12.07a27.39,27.39,0,0,0,1.62-13.23,26,26,0,0,0-.86-4.17c-.2-.71-.49-1.4-.73-2.13a16.5,16.5,0,0,0-.92-2.13,27.23,27.23,0,0,0-5.89-8.08,27.56,27.56,0,0,0-21.23-7.37,28,28,0,0,0-12,4.07,25.82,25.82,0,0,0-2.7,1.9c-.45.32-.83.74-1.25,1.1s-.84.74-1.21,1.15a26.79,26.79,0,0,0-2.18,2.58c-.33.46-.68.91-1,1.38l-.88,1.46A27.47,27.47,0,0,0,246,82.84a27.49,27.49,0,0,0,16.18,15A27.14,27.14,0,0,0,272,99.27a29.66,29.66,0,0,0,4.5-.48,35.78,35.78,0,0,0,4.06-1.15,27.06,27.06,0,0,0,11.08-7.57l0,0,6.72-1.23,1.7-.32.57-.12-.6.1-1.73.29L291.53,90s0,0,0,0a27.13,27.13,0,0,1-11,7.46,36,36,0,0,1-4,1.11,29,29,0,0,1-4.46.47,27.22,27.22,0,0,1-25.61-16.3,27.19,27.19,0,0,1,1.37-24.34l.86-1.45c.32-.46.66-.91,1-1.36A29.26,29.26,0,0,1,251.7,53c.37-.41.81-.76,1.2-1.14a15.71,15.71,0,0,1,1.24-1.08,27.42,27.42,0,0,1,2.67-1.89,27.79,27.79,0,0,1,11.88-4,27.17,27.17,0,0,1,26.87,15.24,16.3,16.3,0,0,1,.91,2.12c.25.71.53,1.4.74,2.11a26.48,26.48,0,0,1,.87,4.13,27.36,27.36,0,0,1-1.54,13.15.09.09,0,0,0,0,.09.07.07,0,0,0,.08,0h-.1l2.94,5,.77,1.3C300.44,88.27,300.54,88.42,300.54,88.42Z" style="fill:#263238"></path><path d="M262.79,72.69A2.78,2.78,0,1,0,260,75.46,2.77,2.77,0,0,0,262.79,72.69Z" style="fill:#263238"></path><path d="M273.88,72.69a2.77,2.77,0,1,0-2.77,2.77A2.77,2.77,0,0,0,273.88,72.69Z" style="fill:#263238"></path><path d="M284.94,74.07a2.77,2.77,0,1,0-3.78,1A2.76,2.76,0,0,0,284.94,74.07Z" style="fill:#263238"></path></g><g id="freepik--speech-bubbles-1--inject-73"><path d="M168.52,96.45l8.25,1.47a25.1,25.1,0,1,0-4.64-7.68h0Z" style="fill:#fafafa"></path><path d="M168.52,96.45l.22-.4.67-1.19,2.66-4.66a.05.05,0,0,1,.08,0l0,0h0l-.11.06a24.91,24.91,0,0,1-.7-16c.19-.65.45-1.29.67-1.95a15.21,15.21,0,0,1,.84-2,25,25,0,0,1,5.4-7.4,25.27,25.27,0,0,1,19.46-6.76,25.77,25.77,0,0,1,11,3.73,24.57,24.57,0,0,1,2.47,1.75c.42.29.76.67,1.15,1s.77.68,1.11,1.06a26.52,26.52,0,0,1,2,2.36c.3.42.62.84.92,1.27l.8,1.34a25.13,25.13,0,0,1,1.25,22.57A25.13,25.13,0,0,1,203.64,105a24.74,24.74,0,0,1-8.91,1.36,27.21,27.21,0,0,1-4.12-.44,32.63,32.63,0,0,1-3.73-1A24.9,24.9,0,0,1,176.72,98l0,0-6.16-1.13-1.56-.3-.52-.1.55.09,1.59.26,6.12,1a.05.05,0,0,1,0,0,24.89,24.89,0,0,0,10.12,6.84,32.87,32.87,0,0,0,3.71,1,28.17,28.17,0,0,0,4.09.42A24.87,24.87,0,0,0,217,68.91l-.8-1.33c-.29-.42-.6-.83-.9-1.24a23.32,23.32,0,0,0-2-2.34c-.33-.38-.73-.69-1.09-1s-.72-.71-1.14-1a22.42,22.42,0,0,0-2.44-1.72,25.42,25.42,0,0,0-10.89-3.7,25.07,25.07,0,0,0-19.27,6.66,24.7,24.7,0,0,0-5.36,7.31,15,15,0,0,0-.84,1.94c-.23.65-.49,1.29-.68,1.93a25.66,25.66,0,0,0-.8,3.79,25.2,25.2,0,0,0,1.41,12,.06.06,0,0,1,0,.08.06.06,0,0,1-.07,0h.09l-2.69,4.59L168.77,96Z" style="fill:#263238"></path><path d="M203.12,82a2.55,2.55,0,1,1,2.55,2.54A2.54,2.54,0,0,1,203.12,82Z" style="fill:#263238"></path><path d="M193,82a2.54,2.54,0,1,1,2.54,2.54A2.54,2.54,0,0,1,193,82Z" style="fill:#263238"></path><path d="M182.82,83.3a2.54,2.54,0,1,1,3.47.93A2.54,2.54,0,0,1,182.82,83.3Z" style="fill:#263238"></path></g><g id="freepik--character-2--inject-73"><path d="M342.68,419.88l1.11,23s-22.7,8.88-22.9,13.16L365,455.5l-.27-36Z" style="fill:#263238"></path><path d="M357.39,440.81a1.81,1.81,0,0,1,1.27,2.06,1.73,1.73,0,0,1-2,1.3,1.92,1.92,0,0,1-1.33-2.2,1.78,1.78,0,0,1,2.23-1.11" style="fill:#e0e0e0"></path><path d="M365,455.5l-.16-3.62-42.2,1.91s-2,.89-1.71,2.29Z" style="fill:#455a64"></path><path d="M343.07,442.7c0,.22,1.09.31,2.15,1s1.65,1.6,1.84,1.51-.13-1.35-1.44-2.16S343,442.5,343.07,442.7Z" style="fill:#fff"></path><path d="M338.47,444.71c-.05.21.89.57,1.63,1.48s1,1.89,1.18,1.88.34-1.25-.6-2.37S338.47,444.5,338.47,444.71Z" style="fill:#fff"></path><path d="M335.92,450.36c.19,0,.48-1.05-.09-2.24s-1.58-1.66-1.67-1.47.54.81,1,1.8S335.7,450.34,335.92,450.36Z" style="fill:#fff"></path><path d="M343.39,437.43c.09.19,1.08-.12,2.29-.05s2.18.44,2.28.25-.81-.95-2.24-1S343.28,437.25,343.39,437.43Z" style="fill:#fff"></path><path d="M394.61,427.59l2.39,27.8-4.36,22.54a2.86,2.86,0,0,0,2.41,3.39h0a2.8,2.8,0,0,0,2.42-.9c3.93-4.35,18.3-20.42,18-22.44-.33-2.35-.6-29.5-.6-29.5Z" style="fill:#263238"></path><path d="M395.05,481.32l20.32-25.22.07,1.18a4.28,4.28,0,0,1-.83,2.85c-1.61,2.19-6.18,8.14-17.06,20.28a2.79,2.79,0,0,1-2.5.91Z" style="fill:#455a64"></path><g style="opacity:0.6000000000000001"><path d="M409.17,447.48a1.75,1.75,0,0,0-.32,2.29,1.61,1.61,0,0,0,2.22.34,1.83,1.83,0,0,0,.33-2.42,1.67,1.67,0,0,0-2.35-.1" style="fill:#fff"></path></g><path d="M400.55,468.74a8.68,8.68,0,0,0-2.54-2,8.49,8.49,0,0,0-3.2-.41c0-.06.31-.3.94-.44a4.46,4.46,0,0,1,2.49.28,4.41,4.41,0,0,1,1.95,1.59C400.55,468.3,400.62,468.71,400.55,468.74Z" style="fill:#fff"></path><path d="M398.83,472.6a20.7,20.7,0,0,0-2.5-1,21.38,21.38,0,0,0-2.7-.18c-.09-.14,1.19-.81,2.83-.42S399,472.51,398.83,472.6Z" style="fill:#fff"></path><path d="M403.88,463.72c-.12.14-1.55-1.17-3.76-1.87s-4.11-.51-4.12-.69,1.95-.67,4.31.11A6.28,6.28,0,0,1,403.88,463.72Z" style="fill:#fff"></path><path d="M403.85,455.21c-.06.17-1.61-.37-3.59-.32s-3.51.64-3.58.47a6.9,6.9,0,0,1,7.17-.15Z" style="fill:#fff"></path><path d="M403.36,447c-.08.17-1.66-.66-3.74-.43a13.17,13.17,0,0,0-3.57,1.17c-.05-.06.22-.43.83-.84a6.15,6.15,0,0,1,2.68-.94,5.88,5.88,0,0,1,2.81.39C403.05,446.66,403.39,447,403.36,447Z" style="fill:#fff"></path><path d="M399.57,445a2.5,2.5,0,0,1-.1-1.05,7.49,7.49,0,0,1,.65-2.81,3.24,3.24,0,0,1,1.27-1.64,1.12,1.12,0,0,1,1.29.17,1.89,1.89,0,0,1,.52,1.23,4,4,0,0,1-3.25,4,4.59,4.59,0,0,1-4.68-2.15,1.65,1.65,0,0,1-.16-1.35,1.1,1.1,0,0,1,1.12-.67,3.86,3.86,0,0,1,1.87.84,8.2,8.2,0,0,1,2,2,2.53,2.53,0,0,1,.48.93,12.86,12.86,0,0,0-2.73-2.61,3.61,3.61,0,0,0-1.64-.69.6.6,0,0,0-.62.36,1.13,1.13,0,0,0,.16.88,4.09,4.09,0,0,0,4.08,1.82,3.5,3.5,0,0,0,2.8-3.32,1.44,1.44,0,0,0-.32-.88.62.62,0,0,0-.71-.1,2.88,2.88,0,0,0-1.1,1.37A11.23,11.23,0,0,0,399.57,445Z" style="fill:#fff"></path><path d="M322,231.47a100.63,100.63,0,0,0-2.13,29.14c.47,6.2,21,177.53,21,177.53h27.79l-7.81-161,2.28.5s15.17,68.68,16.41,79.8c1.11,10,14.73,88.55,14.73,88.55l26.22-.29-9.75-101.4-9.45-92.16-3.55-26.82Z" style="fill:#263238"></path><path d="M369.05,121.45l.6-48.78c.54-12.13-6.06-22.55-18.2-22.76l-1.13.05a21.69,21.69,0,0,0-20.79,20.83c-.42,10.52-.74,22.14-.43,27.76.62,11.63,12.34,13,12.34,13s.07,7.08.06,10.5l-2.73,8,9.58-2.33Z" style="fill:#ae7461"></path><path d="M341.44,111.51a28.15,28.15,0,0,0,15-5.1s-3.29,8.9-14.94,8.33Z" style="fill:#6f4439"></path><path d="M333.24,80.83a1.67,1.67,0,0,0,1.68,1.61,1.6,1.6,0,0,0,1.65-1.57,1.67,1.67,0,0,0-1.67-1.61A1.6,1.6,0,0,0,333.24,80.83Z" style="fill:#263238"></path><path d="M332.21,75.83c.22.21,1.44-.78,3.23-.85s3.14.77,3.32.55-.13-.49-.72-.88a4.59,4.59,0,0,0-2.67-.7,4.38,4.38,0,0,0-2.56.94C332.28,75.34,332.11,75.74,332.21,75.83Z" style="fill:#263238"></path><path d="M349.33,80.83A1.65,1.65,0,0,0,351,82.44a1.59,1.59,0,0,0,1.65-1.57A1.65,1.65,0,0,0,351,79.26,1.59,1.59,0,0,0,349.33,80.83Z" style="fill:#263238"></path><path d="M349.77,75.52c.21.21,1.43-.78,3.22-.85s3.14.78,3.32.55-.13-.49-.72-.88a4.59,4.59,0,0,0-2.67-.7,4.38,4.38,0,0,0-2.56.94C349.83,75,349.66,75.43,349.77,75.52Z" style="fill:#263238"></path><path d="M343.92,89.53a12.12,12.12,0,0,0-2.93-.41c-.46,0-.9-.1-1-.41a2.22,2.22,0,0,1,.24-1.36c.39-1.13.79-2.3,1.21-3.54,1.67-5,2.86-9.15,2.66-9.22s-1.72,4-3.39,9c-.41,1.24-.79,2.42-1.15,3.55a2.6,2.6,0,0,0-.17,1.8,1.17,1.17,0,0,0,.78.64,3.32,3.32,0,0,0,.78.08A11.92,11.92,0,0,0,343.92,89.53Z" style="fill:#263238"></path><path d="M349,70c.26.44,2-.11,4.08-.24s3.89.12,4.09-.36c.08-.23-.29-.62-1.05-1a7.16,7.16,0,0,0-6.23.45C349.15,69.29,348.84,69.73,349,70Z" style="fill:#263238"></path><path d="M331.91,70.57c.39.4,1.83-.06,3.59-.13s3.24.19,3.57-.24c.14-.21-.1-.62-.76-1a5.65,5.65,0,0,0-2.93-.59,5.5,5.5,0,0,0-2.83.89C331.94,70,331.75,70.38,331.91,70.57Z" style="fill:#263238"></path><path d="M369.05,81.33c.2-.09,7.9-2.69,8,5.27s-7.94,6.4-8,6.18S369.05,81.33,369.05,81.33Z" style="fill:#ae7461"></path><path d="M371.48,89.73s.14.1.37.2a1.35,1.35,0,0,0,1,0c.84-.32,1.54-1.66,1.56-3.1a4.36,4.36,0,0,0-.41-2A1.6,1.6,0,0,0,373,83.81a.72.72,0,0,0-.82.39c-.1.22-.05.38-.09.4s-.17-.14-.11-.47a.86.86,0,0,1,.31-.5,1,1,0,0,1,.76-.21,2,2,0,0,1,1.47,1.22,4.81,4.81,0,0,1,.5,2.22c0,1.61-.85,3.12-2,3.46a1.49,1.49,0,0,1-1.27-.2C371.49,89.93,371.45,89.75,371.48,89.73Z" style="fill:#6f4439"></path><path d="M313.44,60.31a2,2,0,0,1,.88-1.12,5.7,5.7,0,0,1,3-.51,16.78,16.78,0,0,0,7.27-1.92,8.21,8.21,0,0,1-2.16-1.48,5,5,0,0,1-1.49-5,1.08,1.08,0,0,1,.61-.76c.52-.17,1,.33,1.34.73A4.31,4.31,0,0,0,326.94,52a7,7,0,0,0,3-.93l.09-.11,1.21-1.24h0c3-3,5.52-5.09,8.16-6.19,3.87-1.61,10.37-2.32,14.44-1.3s7.75,4.27,8.36,8.42c2.25-2,5.67-2,8.45-.89l.07,0c3.1,1.07,4.89,4.31,5.83,7.45.06.17.1.34.15.51a12.12,12.12,0,0,0,4.2,4c.3.17.64.38.68.72a1,1,0,0,1-.52.83,6.11,6.11,0,0,1-2.48,1.07,14.67,14.67,0,0,0,1,2.15c.36.59.78,1.29.48,1.91a1.29,1.29,0,0,1-1.35.61,3.73,3.73,0,0,1-1.44-.64c.35.82.7,1.64,1.06,2.46a7.34,7.34,0,0,1-3.36-.18c-.63,3-1.06,8.4-1.79,10.41-2.12.06-2.63-.17-3.69.2-1.38.47-.83,2.91-2.63,2.24-.92-.35-2.36-3.8-2.68-4.72a45.52,45.52,0,0,1-2.19-19.24,14.57,14.57,0,0,0-4.55-3.21l.14.12c-3.27-1.09-7-2.16-10-.6-2.39,1.22-3.77,3.72-5.54,5.73a16.7,16.7,0,0,1-12.24,6.13c-.42,3.52-.48,9.27-.62,12.56l-2.88-6.54v0c-.23-.39-.42-.77-.61-1.16l-.06-.12h0a20.29,20.29,0,0,0-.94-1.86l0,0a2,2,0,0,1-3-2.71,4.69,4.69,0,0,1,1-1,3.24,3.24,0,0,1-3.09.84,2.55,2.55,0,0,1-1.82-2.5A2.14,2.14,0,0,1,319,63.43a7.28,7.28,0,0,1-4.17-.87C314,62.1,313.18,61.34,313.44,60.31Z" style="fill:#263238"></path><path d="M358.56,52A9.27,9.27,0,0,1,359.75,53a8.41,8.41,0,0,1,1.83,3.85,14.88,14.88,0,0,1,.33,3c0,1.08-.05,2.23-.12,3.44a30.29,30.29,0,0,0-.05,3.83,14.11,14.11,0,0,0,.29,2,4.27,4.27,0,0,0,.84,1.95,1.76,1.76,0,0,0,1.66.53,2.62,2.62,0,0,0,1.47-.85,6.09,6.09,0,0,0,1.09-3l-.25,0a9.66,9.66,0,0,0,1.45,2.43,3.47,3.47,0,0,0,2.28,1.21,2.32,2.32,0,0,0,1.2-.22,1.94,1.94,0,0,0,.81-.82,2,2,0,0,0,.24-1,1.51,1.51,0,0,0-.39-.91l-.12.12a7.61,7.61,0,0,0,2.53,1.85,6.36,6.36,0,0,0,.78.29l.27.07s-.08-.05-.26-.11-.43-.17-.76-.33a8,8,0,0,1-2.44-1.88l-.12.11a1.49,1.49,0,0,1,.1,1.73,1.75,1.75,0,0,1-.73.72,2.1,2.1,0,0,1-1.09.19,3.27,3.27,0,0,1-2.12-1.15,9.67,9.67,0,0,1-1.39-2.37l-.17-.38-.08.41a5.79,5.79,0,0,1-1,2.84,2.38,2.38,0,0,1-1.32.77,1.5,1.5,0,0,1-1.41-.46,4,4,0,0,1-.78-1.82,13.54,13.54,0,0,1-.28-2,29.8,29.8,0,0,1,0-3.79c.06-1.22.12-2.37.1-3.46a14.39,14.39,0,0,0-.37-3A8.28,8.28,0,0,0,359.82,53,4.64,4.64,0,0,0,358.56,52Z" style="fill:#455a64"></path><path d="M322.62,63.73s0,0,.09.08L323,64a5.76,5.76,0,0,0,.5.31,6.81,6.81,0,0,0,.72.37,10.4,10.4,0,0,0,5,.84,13.29,13.29,0,0,0,7-2.68,22.82,22.82,0,0,0,6-7c.84-1.42,1.51-2.88,2.26-4.22A15.41,15.41,0,0,1,347,48a8.07,8.07,0,0,1,3.34-2.08,5.77,5.77,0,0,1,1.77-.22,6.11,6.11,0,0,1,1.63.29,6.66,6.66,0,0,1,2.44,1.44,6.58,6.58,0,0,1,1.34,1.69,7.88,7.88,0,0,1,.62,1.74s0,0,0-.12,0-.22-.06-.36a5.76,5.76,0,0,0-.46-1.31,6.61,6.61,0,0,0-1.32-1.76,6.89,6.89,0,0,0-2.49-1.5,6.42,6.42,0,0,0-1.68-.32,5.82,5.82,0,0,0-1.84.21,8.13,8.13,0,0,0-3.45,2.12,15.58,15.58,0,0,0-2.63,3.63c-.75,1.35-1.43,2.81-2.25,4.21a23,23,0,0,1-5.88,7,13.23,13.23,0,0,1-6.88,2.69,10.5,10.5,0,0,1-4.94-.75A13.74,13.74,0,0,1,322.62,63.73Z" style="fill:#455a64"></path><path d="M321.5,58.62s.14.12.42.29a9,9,0,0,0,1.24.61,11.5,11.5,0,0,0,2,.62,13.67,13.67,0,0,0,2.51.31,14.34,14.34,0,0,0,2.53-.2,12.52,12.52,0,0,0,2-.54,9.07,9.07,0,0,0,1.27-.57,1.81,1.81,0,0,0,.43-.26c0-.05-.66.29-1.76.65a14.16,14.16,0,0,1-2,.47,14.75,14.75,0,0,1-2.47.17,15.43,15.43,0,0,1-2.47-.27,13.62,13.62,0,0,1-1.95-.56C322.15,58.94,321.52,58.58,321.5,58.62Z" style="fill:#455a64"></path><path d="M344.08,93.71c.14,0,6.29-2.4,6.29-2.4s1.78,3.55-.38,5.18-4.77.61-5.18-.37A15.82,15.82,0,0,1,344.08,93.71Z" style="fill:#6f4439"></path><path d="M345.47,96.81a7.55,7.55,0,0,0,.86.27,6.26,6.26,0,0,0,2.4-.14h0a3,3,0,0,0,2-3.92,7.09,7.09,0,0,0-.6-1.58l.32.11c-1.87.7-3.51,1.29-4.69,1.7a8.36,8.36,0,0,1-1.92.55,9.26,9.26,0,0,1,1.81-.86c1.14-.49,2.76-1.15,4.61-1.87l.21-.08.11.19a7.67,7.67,0,0,1,.66,1.71,3.89,3.89,0,0,1-.32,3,3.72,3.72,0,0,1-2.08,1.47h0a5.59,5.59,0,0,1-2.55,0C345.67,97.13,345.44,96.82,345.47,96.81Z" style="fill:#263238"></path><path d="M289.76,191.93l21,13.2c7.57,4,13.06,1.1,14.88-5.3l-.19-23.48s-13.35-7.11-15.38-7.42c-.68-.1-1.69,13.64-1.69,13.64l-20.25-5.67-5.11,10.35Z" style="fill:#ae7461"></path><path d="M287.93,174.14c-.13-.23-5.78-9.21-9-12.58s-3.28-7.05-5.56-7.35-2.69,2.89-1.6,6.17,4,5,3.2,6.15-19.06-1.9-19.06-1.9-2.36-2.41-4.21-.39c0,0-2.94-.7-2.71,1.59s5.57,2.54,5.57,2.54l2.65,4.72,6.14,2.28a8.45,8.45,0,0,0,2.21,4.37,17.11,17.11,0,0,0,3.44,2.82c.25.05,5.72,3.41,8.5,4.09s6.48,1.26,6.48,1.26l5.05-10.1A7,7,0,0,0,287.93,174.14Z" style="fill:#ae7461"></path><path d="M263.44,175.71a10.35,10.35,0,0,1-.69-4.21c.22-1.93,2-10.48,2.87-10.65s2.26-.66,2.65,1.66-.94,7.79-.94,7.92a12.14,12.14,0,0,1,1,3.72" style="fill:#ae7461"></path><path d="M268.34,174.15a10.24,10.24,0,0,1-.28-1.19,12.28,12.28,0,0,0-.42-1.35c-.1-.25-.22-.52-.35-.81l-.1-.23a.53.53,0,0,1,0-.33l.1-.51a47.5,47.5,0,0,0,.73-4.84,8.25,8.25,0,0,0-.11-2.8,1.53,1.53,0,0,0-.74-1,2.33,2.33,0,0,0-1.4,0c-.1-.05-.21.2-.32.42s-.2.47-.29.71c-.17.48-.32,1-.46,1.45-.27,1-.51,1.91-.73,2.81-.42,1.8-.78,3.43-1,4.8a8.73,8.73,0,0,0,.21,3.24,9.87,9.87,0,0,1,.27,1.19,4,4,0,0,1-.47-1.14,8.19,8.19,0,0,1-.37-3.34c.19-1.4.51-3,.91-4.86.2-.91.43-1.86.7-2.84.14-.49.29-1,.46-1.48.09-.26.19-.51.3-.76a3.15,3.15,0,0,1,.22-.39,1,1,0,0,1,.18-.2.54.54,0,0,1,.2-.1l.09,0a2.73,2.73,0,0,1,1.72,0,2,2,0,0,1,1,1.36,8.44,8.44,0,0,1,.1,3,42.33,42.33,0,0,1-.85,4.88l-.12.5c0,.11,0,.1,0,.14l.09.22c.12.29.22.58.31.85a8.37,8.37,0,0,1,.35,1.4A4,4,0,0,1,268.34,174.15Z" style="fill:#6f4439"></path><path d="M283.05,177.84a21.2,21.2,0,0,0-2.8-.71,7.73,7.73,0,0,0-3.18.29,8.11,8.11,0,0,0-3.43,2.13l-.43.45v-.62c0-1.63,0-3.4.08-5.25h0v0c0-.18,0-.38,0-.57a8.52,8.52,0,0,0-.28-3.14,1.7,1.7,0,0,0-2.11-1.14,1.2,1.2,0,0,0-.49.32,1.22,1.22,0,0,0-.21.55c-.1.43-.17.88-.24,1.3l-.37,2.37c-.2,1.38-.37,2.53-.5,3.45a4.94,4.94,0,0,1-.27,1.25,8.19,8.19,0,0,1,.06-1.28c.07-.82.18-2,.35-3.46q.12-1.11.3-2.4c.06-.43.13-.87.22-1.33,0-.12.06-.24.09-.36a1.13,1.13,0,0,1,.21-.39,1.64,1.64,0,0,1,.69-.47,2,2,0,0,1,1.64.12,2.38,2.38,0,0,1,1.11,1.29,8.78,8.78,0,0,1,.32,3.35c0,.2,0,.41-.05.6v0c0,1.85-.08,3.62-.12,5.25l-.42-.16A8.29,8.29,0,0,1,277,177a7.61,7.61,0,0,1,3.33-.19,6,6,0,0,1,1.22.3,4.31,4.31,0,0,1,.86.33A3.48,3.48,0,0,1,283.05,177.84Z" style="fill:#6f4439"></path><path d="M262.72,169.9a22.59,22.59,0,0,1-3.63-1.25l-.06,0,0-.07a14.88,14.88,0,0,0-1.53-2,19.88,19.88,0,0,0-2.06-2,3.63,3.63,0,0,0-1.89-.85,1.91,1.91,0,0,0-1.59.68v-.27c.83,1.24,1.52,2.29,2,3a5.36,5.36,0,0,1,.68,1.22,5.1,5.1,0,0,1-.9-1.06c-.54-.71-1.28-1.72-2.15-2.94l-.1-.13.1-.13a2.41,2.41,0,0,1,2-.92,4,4,0,0,1,2.18.95,17.55,17.55,0,0,1,2.11,2.12,13.84,13.84,0,0,1,1.54,2.1l-.11-.1A23.29,23.29,0,0,1,262.72,169.9Z" style="fill:#6f4439"></path><path d="M319.18,130c-3.47,2.57-6.29,6.16-7.17,12.72l-5.38,32,15.31,4.34,5.29-36.39Z" style="fill:#3673FD"></path><path d="M336.32,120.45,319.18,130c-1.44,9.56.73,63.53.73,63.53l-.8,51.74c24,11.89,51.71,7.54,81.08-2a11.81,11.81,0,0,0-.62-5.92L394.86,192s1.22-35,1.22-35.71S398.71,123,398.71,123l-28.2-8.43s-12,9.93-21.5,10.4c-8.22.41-7.79-7-7.79-7Z" style="fill:#3673FD"></path><path d="M318.69,142.76a8.58,8.58,0,0,1,.1,1.57c0,1.1,0,2.53.09,4.26,0,3.7.1,8.63.17,14.08s.19,10.47.32,14.07c.06,1.73.11,3.16.15,4.26a7.9,7.9,0,0,1,0,1.57,10.72,10.72,0,0,1-.2-1.55c-.1-1-.21-2.46-.32-4.26-.22-3.6-.4-8.58-.47-14.08s-.06-10.48,0-14.09c0-1.73.06-3.16.08-4.26A8.58,8.58,0,0,1,318.69,142.76Z" style="fill:#263238"></path><path d="M366.26,202.43c-.36.91-9.17,5.61-9.17,5.61h-4s-2.57-3.57-2.42-4.1,1.67-6.36-.46-6.06-3.56,4.08-3.86,5.07a4.86,4.86,0,0,0,.38,2.58s-3.64-4.47-6.14-3.33-1.29,2.73-1.29,2.73l7.28,6.29s-4.93-.61-4.86,3l4.4,2,7.17,1.22a5.29,5.29,0,0,0,2.59-.21l1.75-.61a38.2,38.2,0,0,0,6.61-1.31c2.35-.83,4.81-3.57,4.81-3.57l9.21-10.15s1.29-5.23-1.67-6.67-2-.07-2.95-1.44-4.81-3-5,1.06c-.15,3.18,1.22,3.94,1.44,3.94S367.7,198.79,366.26,202.43Z" style="fill:#ae7461"></path><path d="M353.56,208a15.73,15.73,0,0,1-3.85-.52h0l0,0-.11-.07c-1.85-1.19-3.26-2.41-3.05-2.6,0,0,.35.24,1,.63L349.8,207l.1.07-.09,0A14.8,14.8,0,0,1,353.56,208Z" style="fill:#6f4439"></path><path d="M365.45,207.37s-.3.08-.78.26a4.36,4.36,0,0,0-1.7,1.23v0c-.42.7-.88,1.45-1.37,2.23l0,.08-.1,0a14.94,14.94,0,0,0-1.45.57,10.55,10.55,0,0,0-2.36,1.42,2.25,2.25,0,0,0-1,1.75,2.3,2.3,0,0,0,.62,1.28c.24.27.39.4.37.43s-.21-.05-.51-.29a2.25,2.25,0,0,1-.85-1.39,1.8,1.8,0,0,1,.25-1.15,4.18,4.18,0,0,1,.85-1,9.62,9.62,0,0,1,2.45-1.53,13.73,13.73,0,0,1,1.53-.59l-.14.11,1.43-2.18,0,0h0a4.21,4.21,0,0,1,2-1.18C365.14,207.27,365.45,207.33,365.45,207.37Z" style="fill:#6f4439"></path><path d="M370.05,198.48c.05-.06.27,0,.62.06a8.53,8.53,0,0,0,1.4.11,7.24,7.24,0,0,1,2.06.07c0,.14-.88.46-2.07.45a4,4,0,0,1-1.5-.27C370.19,198.73,370,198.54,370.05,198.48Z" style="fill:#6f4439"></path><path d="M378.24,201.59s4.74-1.29,9.63-2.79l10.89-3.91-3.38-19.57,22.86-8s3.94,28.58,3,35.86c-.94,7.12-4.91,8.81-10.47,10.62s-46.24-.21-46.81.67,5.55-8.05,5.55-8.05Z" style="fill:#ae7461"></path><path d="M370.78,209.61a7.66,7.66,0,0,1-2.23,3,7.57,7.57,0,0,1-3.14,2c-.08-.13,1.31-1,2.78-2.39S370.66,209.52,370.78,209.61Z" style="fill:#6f4439"></path><path d="M408.84,198.72a30.63,30.63,0,0,0-4.73-2.72,29,29,0,0,0-5.31-1.31,12,12,0,0,1,10,4Z" style="fill:#6f4439"></path><path d="M358.39,209.86c0,.07-.95.46-2.47,1.22l-1.23.62-.7.36-.18.09-.11,0a.34.34,0,0,1-.18,0l-.42,0-3.64-.38-1.89-.21a13.8,13.8,0,0,0-1.74-.15,5.18,5.18,0,0,0-2.77.59,2.6,2.6,0,0,0-1.17,1.44c-.14.44-.15.7-.19.71s-.1-.27,0-.76a2.66,2.66,0,0,1,1.18-1.7,5.31,5.31,0,0,1,3-.76,13.42,13.42,0,0,1,1.78.12l1.87.2,3.63.42.41.05s.18-.07.28-.11l.7-.32,1.27-.58A9.57,9.57,0,0,1,358.39,209.86Z" style="fill:#6f4439"></path><path d="M398.71,123c.65.22,8.29,2.47,12.45,13.42s9.66,39.54,9.66,39.54l-26.08,5.27-3.91-35.44Z" style="fill:#3673FD"></path><path d="M389.23,148.67a6.18,6.18,0,0,1,.25,1.27c.13.93.3,2.09.5,3.48.41,2.94,1,7,1.79,11.45s1.58,8.48,2.19,11.38c.28,1.38.51,2.53.7,3.45a5.13,5.13,0,0,1,.2,1.27,6.71,6.71,0,0,1-.39-1.23c-.23-.8-.53-2-.87-3.41-.7-2.89-1.56-6.9-2.34-11.37s-1.33-8.54-1.65-11.49c-.16-1.48-.28-2.68-.34-3.51A6.64,6.64,0,0,1,389.23,148.67Z" style="fill:#263238"></path><path d="M398,126a20.35,20.35,0,0,0-9.3,12.53,7.14,7.14,0,0,1,.41-2.35,16.4,16.4,0,0,1,2.57-5.15,16.65,16.65,0,0,1,4.19-4A6.6,6.6,0,0,1,398,126Z" style="fill:#263238"></path></g><g id="freepik--character-1--inject-73"><path d="M116,425l1.53,23.67-6.39,20.47a2.66,2.66,0,0,0,1.92,3.39h0a2.68,2.68,0,0,0,2.38-.58c4.14-3.63,19.31-17.06,19.25-19-.08-2.21.42-27.48.42-27.48Z" style="fill:#263238"></path><path d="M113.09,472.5l21.71-21.3-.05,1.1a4.07,4.07,0,0,1-1.07,2.56c-1.74,1.87-6.66,6.92-18.14,17.06a2.66,2.66,0,0,1-2.45.58Z" style="fill:#455a64"></path><path d="M119.55,461.4c-.15.06-.67-1.33-2.19-2.13a8.29,8.29,0,0,0-3-.71c0-.06.32-.25.93-.31a4.23,4.23,0,0,1,2.32.52,4.17,4.17,0,0,1,1.67,1.68C119.59,461,119.62,461.38,119.55,461.4Z" style="fill:#fff"></path><path d="M117.54,464.8c-.13.11-.92-.78-2.25-1.22a23.18,23.18,0,0,0-2.53-.45,3,3,0,0,1,2.72-.09C117,463.55,117.68,464.74,117.54,464.8Z" style="fill:#fff"></path><path d="M123.2,457.09a25.26,25.26,0,0,0-3.35-2.12c-2-.91-3.82-.9-3.82-1.08a7.28,7.28,0,0,1,7.17,3.2Z" style="fill:#fff"></path><path d="M124,449.19c-.08.15-1.49-.52-3.35-.67s-3.38.23-3.42.07a6.59,6.59,0,0,1,6.77.6Z" style="fill:#fff"></path><path d="M179.15,419.93l-.78,22.94s23,8.49,23.32,12.75l-44.53.09-.26-35.8Z" style="fill:#263238"></path><path d="M164.59,441a1.81,1.81,0,0,0-1.25,2.07,1.74,1.74,0,0,0,2,1.26,1.91,1.91,0,0,0,1.31-2.2,1.81,1.81,0,0,0-2.27-1.08" style="fill:#e0e0e0"></path><path d="M157.16,455.71l.11-3.61,42.66,1.26s2,.86,1.76,2.26Z" style="fill:#455a64"></path><path d="M179.09,442.64c0,.22-1.1.32-2.16,1s-1.64,1.62-1.84,1.53.12-1.34,1.43-2.17S179.14,442.44,179.09,442.64Z" style="fill:#fff"></path><path d="M183.76,444.56c.05.21-.89.59-1.62,1.51S181.19,448,181,448s-.36-1.24.58-2.37S183.76,444.36,183.76,444.56Z" style="fill:#fff"></path><path d="M186.43,450.15c-.2,0-.5-1,0-2.23s1.57-1.67,1.67-1.49-.54.82-1,1.8S186.64,450.13,186.43,450.15Z" style="fill:#fff"></path><path d="M178.69,437.39c-.1.2-1.09-.1-2.32,0s-2.19.47-2.3.29.8-1,2.25-1.05S178.79,437.22,178.69,437.39Z" style="fill:#fff"></path><path d="M181.84,266.24l-3-21.11-81.27-3.7-2.48,25.1,8.75,75.75c1.14,6.39.41,36.19,1.61,44.18.3,2,8.91,56.66,8.91,56.66h22s1.27-54,1.45-58.5,1-34.65,1-42.35c0-9.34,4-57.5,4-57.5l5.64,65.11s-.46,19.73,0,23.91c.75,7.3,6.38,67.63,6.38,67.63l24.69.49s5.14-70.38,5.29-84C185.05,342.25,181.8,267.28,181.84,266.24Z" style="fill:#263238"></path><path d="M161.34,127.42s13.07,3.45,17.77,19.38c3.39,11.49,9.66,27.86,9.66,27.86l-21.18,3.55Z" style="fill:#455a64"></path><path d="M92.78,130.5s9.68-4.65,21.1-8.63h3.64l22,1.39a135.47,135.47,0,0,1,21.83,4.16s6.28,41,7.52,49.07c1.33,8.77,2.66,17.81,2.66,17.81l7.06,47.17c2.24,2.91,1.66,5.92,1.34,8.92-24.64,10.79-52,12.79-83.47.42a4.8,4.8,0,0,1,.16-4.91c.32-9.6,1-30.47,1.48-36.89,0,0-3.47-19.51-6-27-3-8.94-8.08-23.31-8.08-30.68C84,144.55,92.78,130.5,92.78,130.5Z" style="fill:#455a64"></path><path d="M109.48,211.67s8,7,13.1,6.72,18.76-11.57,18.76-11.57,21.38,7.9,26.15,8,7.1,0,7.1,0V203.7L142.9,193.55l-29.07,4.3Z" style="opacity:0.30000000000000004"></path><path d="M163.48,140.89c.14,0,2.06,11.88,4.28,26.57s3.9,26.63,3.76,26.66-2.06-11.88-4.28-26.58S163.34,140.91,163.48,140.89Z" style="fill:#263238"></path><path d="M99.17,190.85c-.2.07-3.81,1.33-4,3.5s2,4.33,2,4.33a3.23,3.23,0,0,0,.42,4.9s-2,3.87,3.49,5c0,0-.58,3.76,2.9,4.56s5.28-1.09,5.53-1.48a1,1,0,0,0,0-1.37l6.49-.8s14.47-1.59,16.07-3.07-.8-14.9-3.54-15.6S103.44,189.28,99.17,190.85Z" style="fill:#ffbf9d"></path><path d="M104.94,205c0,.15-1.09.58-2.15,1.57s-1.58,2.08-1.73,2a4.65,4.65,0,0,1,3.88-3.59Z" style="fill:#ff9a6c"></path><path d="M101.82,201.15c.06.15-1,.55-2.24,1.16s-1.94,1.48-2.06,1.39.48-1.17,1.81-1.85A4.75,4.75,0,0,1,101.82,201.15Z" style="fill:#ff9a6c"></path><path d="M100.35,196.62c0,.15-.85.5-1.79,1.17s-1.56,1.37-1.69,1.29.37-1,1.39-1.72A3,3,0,0,1,100.35,196.62Z" style="fill:#ff9a6c"></path><path d="M187.72,174.83c-.15,0,4.4,15.22,4.4,15.22l-20.07,5-1.71-8.71-1.06-8.43Z" style="fill:#ffbf9d"></path><path d="M129.16,184c.69.35,42.72,2.21,42.72,2.21s15.53-.58,19.58,1.67c0,0,5.22,14.47-1,20.42-5.08,4.9-10.12,4.78-16.59,3.81-7.32-1.1-39.78-12.91-39.78-12.91Z" style="fill:#ffbf9d"></path><path d="M186.34,188.68a63.75,63.75,0,0,0-7.52-2,58.7,58.7,0,0,0-7.76-.52,7.42,7.42,0,0,1,2.28-.32,26.21,26.21,0,0,1,10.94,1.83A7.84,7.84,0,0,1,186.34,188.68Z" style="fill:#ff9a6c"></path><path d="M159.16,155.73a28.89,28.89,0,0,0,2.1-3.51c.57-1.32.71-6.15,2.12-7.51s5.76-5.46,7.42-7,2.18-2.56,3.2-1.52a4,4,0,0,1,.25,4.68c-.94,1.73-4.2,4.67-3.72,6.38s.43,3.32,3.39,3.3,11.14-2.48,15.14-3.43c5.62-1.34,6.91.47,6.91.47s2.8-.66,3.38.6-1.39,2.9-2.26,3.59-.17,3.47-6.37,7.2c-.82.49,1.05,1.9-5.1,4.62-3.51,1.55-5.89,3.11-9.92,3.85-8.53,1.58-12.22,6.49-12.22,6.49-.2,0-12.15-11.57-9.93-13.45Z" style="fill:#ffbf9d"></path><path d="M195.94,147.4s.21.15.22.58a1.91,1.91,0,0,1-.92,1.43,36.39,36.39,0,0,1-4.93,2.32,48.6,48.6,0,0,1-5.15,1.71,8.38,8.38,0,0,1-2.21.43c0-.15,3.26-1.07,7.17-2.63,1.94-.78,3.73-1.53,4.91-2.13A1.82,1.82,0,0,0,196,148C196,147.62,195.89,147.41,195.94,147.4Z" style="fill:#ff9a6c"></path><path d="M196.92,152a8.41,8.41,0,0,1-1.84,1.37,40.88,40.88,0,0,1-4.87,2.63,40,40,0,0,1-5.18,2,9,9,0,0,1-2.24.5c0-.16,3.31-1.13,7.2-2.92S196.84,151.88,196.92,152Z" style="fill:#ff9a6c"></path><path d="M184.25,162.12a15.68,15.68,0,0,1,3.16-1.72,15.86,15.86,0,0,1,3.31-1.44,10.72,10.72,0,0,1-3.08,1.91A10.27,10.27,0,0,1,184.25,162.12Z" style="fill:#ff9a6c"></path><path d="M96.45,186.9s12,25,22.39,26.43,18.33-9.89,22-14.06c4.74-5.36,28-31.15,28-31.15l-12.32-10-31.65,22.5-6-10Z" style="fill:#ffbf9d"></path><path d="M112.72,210.2a5.32,5.32,0,0,1-1-.54,7.49,7.49,0,0,1-1-.81,12.84,12.84,0,0,1-1.28-1.22,55.11,55.11,0,0,1-6.09-8.13c-2.11-3.36-3.85-6.5-5-8.8-.6-1.15-1.07-2.09-1.38-2.75a4.24,4.24,0,0,1-.42-1,5.59,5.59,0,0,1,.6,1c.42.72.92,1.61,1.52,2.66,1.28,2.25,3.07,5.36,5.17,8.7a66.58,66.58,0,0,0,5.92,8.16,14.72,14.72,0,0,0,1.2,1.25,11,11,0,0,0,1,.87A4,4,0,0,1,112.72,210.2Z" style="fill:#ff9a6c"></path><path d="M152.48,186.31a4.63,4.63,0,0,1-.62.94c-.43.59-1.07,1.42-1.89,2.42-1.65,2-4,4.69-6.68,7.6s-5.13,5.51-6.94,7.36c-.9.93-1.64,1.67-2.16,2.17a4.55,4.55,0,0,1-.85.75,5.24,5.24,0,0,1,.7-.89l2.05-2.28,6.82-7.46c2.66-2.91,5.06-5.56,6.78-7.49l2-2.3A4.49,4.49,0,0,1,152.48,186.31Z" style="fill:#ff9a6c"></path><path d="M109,149.59c6.69,12.47,14.21,25.48,14.21,25.48L94.94,190.91s-11.09-25.06-11.18-25.73c0,0-3.93-15.36-.32-24a25.41,25.41,0,0,1,9.34-10.73" style="fill:#455a64"></path><path d="M92.78,130.5l-.14.11-.45.32c-.38.28-1,.71-1.66,1.3a26.57,26.57,0,0,0-5.26,5.89A18.66,18.66,0,0,0,83,143.19a26.7,26.7,0,0,0-.82,6.48A63.62,63.62,0,0,0,84,165.12v0c.3.81.72,1.78,1.1,2.68s.8,1.84,1.2,2.78l2.51,5.73c1.71,3.9,3.49,7.94,5.32,12.08l1.05,2.39-.36-.12,28.26-15.81-.08.3c-4.25-7.68-7.77-14.06-10.25-18.55l-2.83-5.18c-.3-.58-.55-1-.72-1.38a2.2,2.2,0,0,1-.23-.48s.1.15.29.45l.78,1.34c.69,1.22,1.68,2.94,2.93,5.13,2.52,4.47,6.1,10.81,10.4,18.45l.11.19-.19.11L95.07,191.14l-.25.14L94.7,191l-1-2.39-5.31-12.08-2.49-5.75L84.65,168c-.39-1-.77-1.77-1.12-2.8v0a63.41,63.41,0,0,1-1.79-15.58,27.53,27.53,0,0,1,.88-6.57A18.75,18.75,0,0,1,85,138a26.2,26.2,0,0,1,5.41-5.85c.73-.58,1.32-1,1.72-1.25l.46-.28Z" style="fill:#263238"></path><path d="M121.24,195a6.73,6.73,0,0,1-.27-2.23,19.12,19.12,0,0,1,2.87-10.38,6.89,6.89,0,0,1,1.38-1.78,34.26,34.26,0,0,0-3.06,6.9A33.7,33.7,0,0,0,121.24,195Z" style="fill:#ff9a6c"></path><path d="M101.28,107.6c1.2-1.06,2.9-1.35,4.11-2.37a6,6,0,0,0,1.88-4.29,16.4,16.4,0,0,0-.68-4.76l13,16.7a16.9,16.9,0,0,1-3.77,5,6.07,6.07,0,0,1-5.81,1.32c-2-.72-3.28-3.18-2.38-5.1a4.79,4.79,0,0,1-6.49,0A4.67,4.67,0,0,1,101.28,107.6Z" style="fill:#263238"></path><path d="M138.89,58.82c3.16,2.36,3.68,4.7,3.8,6,0,.37,0,.84-.37,1a.82.82,0,0,1-.51,0l-10.56-3.28" style="fill:#263238"></path><path d="M109.72,100.91a87.85,87.85,0,0,1-6.35-13.45,31,31,0,0,1-1.65-14.7c.12-.75,1.38-5.84,2.11-5.92.53,0,0,4.57.39,5,3.33,3.87,5,9,5.59,14.11a68.3,68.3,0,0,1-.09,15" style="fill:#263238"></path><path d="M150.55,101c-.72-5.75-3.16-17.46-5.49-28a21.9,21.9,0,0,0-24.4-17.22l-1.13.16c-12,2.48-16.63,14.27-13.88,26.45l8.25,40.89.77.75c5.29,5.19,11.42,8,18,7.83a9.31,9.31,0,0,0,9-8.7h0c.06-.13-1-6.7-1-6.7S152.06,112.89,150.55,101Z" style="fill:#ffbf9d"></path><path d="M140.69,116.42A27.78,27.78,0,0,1,124.93,114s4.88,8.4,16.32,5.65Z" style="fill:#ff9a6c"></path><path d="M142.92,84.54a1.71,1.71,0,0,1-1.36,1.95,1.6,1.6,0,0,1-1.92-1.28A1.7,1.7,0,0,1,141,83.26,1.6,1.6,0,0,1,142.92,84.54Z" style="fill:#263238"></path><path d="M143.32,78.56c-.18.25-1.57-.52-3.35-.25s-3,1.36-3.19,1.17,0-.52.55-1a4.66,4.66,0,0,1,2.52-1.21,4.4,4.4,0,0,1,2.71.48C143.16,78.07,143.41,78.45,143.32,78.56Z" style="fill:#263238"></path><path d="M127.53,86.76a1.7,1.7,0,0,1-1.36,1.94,1.6,1.6,0,0,1-1.92-1.28,1.71,1.71,0,0,1,1.36-2A1.61,1.61,0,0,1,127.53,86.76Z" style="fill:#263238"></path><path d="M125.87,81.52c-.17.25-1.56-.52-3.35-.25s-3,1.36-3.19,1.17,0-.52.56-1a4.52,4.52,0,0,1,2.52-1.22,4.37,4.37,0,0,1,2.7.48C125.72,81,126,81.41,125.87,81.52Z" style="fill:#263238"></path><path d="M134.22,94.62a11.51,11.51,0,0,1,2.83-1c.45-.11.87-.27.9-.6a2.4,2.4,0,0,0-.5-1.33c-.58-1.07-1.19-2.19-1.84-3.36-2.57-4.78-4.5-8.74-4.31-8.84s2.43,3.69,5,8.47l1.79,3.38a2.82,2.82,0,0,1,.49,1.79,1.18,1.18,0,0,1-.66.79,2.93,2.93,0,0,1-.76.23A11.68,11.68,0,0,1,134.22,94.62Z" style="fill:#263238"></path><path d="M125.66,75.73c-.18.5-2,.26-4.1.52s-3.82.85-4.1.4c-.13-.22.17-.69.86-1.17a7,7,0,0,1,6.25-.7C125.34,75.1,125.74,75.49,125.66,75.73Z" style="fill:#263238"></path><path d="M143.14,75.57c-.31.47-1.83.28-3.57.54s-3.18.79-3.59.41c-.18-.18,0-.63.57-1.13a5.68,5.68,0,0,1,2.8-1.14,5.54,5.54,0,0,1,3,.37C143,75,143.27,75.34,143.14,75.57Z" style="fill:#263238"></path><path d="M107.82,91c-.21-.06-8.32-1.26-6.94,6.82s9,5,9,4.77S107.82,91,107.82,91Z" style="fill:#ffbf9d"></path><path d="M107,100s-.13.12-.34.27a1.39,1.39,0,0,1-1,.21c-.88-.17-1.82-1.4-2.11-2.85a5,5,0,0,1,0-2.08,1.65,1.65,0,0,1,.86-1.27.69.69,0,0,1,.87.24c.15.21.13.38.17.38s.15-.16,0-.48a.89.89,0,0,0-.4-.45,1,1,0,0,0-.8-.07A2,2,0,0,0,103,95.38a4.9,4.9,0,0,0-.1,2.33c.33,1.62,1.41,3,2.61,3.14a1.47,1.47,0,0,0,1.22-.44C107,100.16,107,100,107,100Z" style="fill:#ff9a6c"></path><path d="M137.55,60.55c1.15-1-3.45-4.47-6.85-5.34-5.14-1.31-12.63-1.31-16.78.78-5,2.52-8.89,6-10.65,11.42a32.88,32.88,0,0,0-.58,16.86,10,10,0,0,0,2,4.72c1.42,1.58,3.16,2.17,4.09,4.79a4.56,4.56,0,0,0,1.26,2.3c1.73,1.3,3.23-.5,3.78-2.14,1.17-3.48.68-7.29.19-10.94a24.67,24.67,0,0,0-1.88-7.58c-.63-1.28-1.48-2.43-2-3.74a5,5,0,0,1-.16-4.13,4.35,4.35,0,0,1,.52-.78,8.29,8.29,0,0,1,7.88-3.13c4.74.78,12.76,1.75,14.47-.16,2.45-2.76,2.88-4.33,2.88-4.33Z" style="fill:#263238"></path><path d="M102.28,91.69c-.18-.11-.4-.09-.57-.2C90.76,84.16,96.6,74,96.23,71.33c-.5-3.76-4,1.77-5.45-3C88.87,61.93,95.16,57.88,103,53.52c3.29-1.83,11.8-3.8,19.62-3.59,7,.18,12.32,4.21,15.54,7.48a5.84,5.84,0,0,1,2.21,1.13c1.58,2,1.21,3,1.21,3s-16.25-5.09-26.83,7.59-6.73,21.19-10,21.92Z" style="fill:#455a64"></path><path d="M106.74,58.54a4.39,4.39,0,0,1-.6.4c-.2.13-.44.28-.71.47s-.59.39-.92.65A22.53,22.53,0,0,0,102.29,62a25,25,0,0,0-2.37,2.7,25.77,25.77,0,0,0-1.92,3,24.2,24.2,0,0,0-1.2,2.7c-.16.39-.27.76-.37,1.08s-.19.59-.25.82A3.93,3.93,0,0,1,96,73a6.82,6.82,0,0,1,.14-.72,8.54,8.54,0,0,1,.21-.84c.1-.33.19-.7.34-1.1a22.17,22.17,0,0,1,1.17-2.74,23.93,23.93,0,0,1,1.93-3.1,22.43,22.43,0,0,1,2.4-2.71,19.68,19.68,0,0,1,2.28-1.88,11,11,0,0,1,.94-.63c.28-.19.53-.33.73-.44A3.49,3.49,0,0,1,106.74,58.54Z" style="fill:#263238"></path><path d="M138.61,57.55s-.05,0-.15,0l-.43-.09c-.37-.09-.93-.2-1.64-.34s-1.6-.28-2.63-.38a27.38,27.38,0,0,0-3.51-.13,26.69,26.69,0,0,0-8.92,1.78,28.34,28.34,0,0,0-4.85,2.4,28.68,28.68,0,0,0-4.6,3.56,27.66,27.66,0,0,0-3.77,4.48,29.39,29.39,0,0,0-2.59,4.82,41.36,41.36,0,0,0-2.53,9c-.45,2.62-.64,4.77-.77,6.26-.06.73-.1,1.3-.14,1.71,0,.18,0,.33,0,.44s0,.16,0,.16,0-.06,0-.16,0-.26,0-.44c0-.4,0-1,.09-1.72.1-1.49.27-3.64.7-6.28a40.53,40.53,0,0,1,2.5-9,29.15,29.15,0,0,1,2.59-4.88,27.63,27.63,0,0,1,3.8-4.51,28.73,28.73,0,0,1,4.64-3.59,29.11,29.11,0,0,1,4.89-2.41,26.78,26.78,0,0,1,9-1.74,25.29,25.29,0,0,1,3.52.17c1,.11,1.92.28,2.63.41s1.27.29,1.64.39l.42.12Z" style="fill:#263238"></path><path d="M106.64,86.75a3.55,3.55,0,0,1-2.18.14,3.66,3.66,0,0,1-2-1,12.51,12.51,0,0,0,2,.72A11,11,0,0,0,106.64,86.75Z" style="fill:#263238"></path><path d="M109.51,78.82a2,2,0,0,1-.84,0,6.17,6.17,0,0,1-3.55-2,2.1,2.1,0,0,1-.5-.7,8.33,8.33,0,0,0,4.89,2.68Z" style="fill:#263238"></path><path d="M115.08,68.66a20.6,20.6,0,0,0-1.86-2A19.39,19.39,0,0,0,111,65.22a7,7,0,0,1,4.11,3.44Z" style="fill:#263238"></path><path d="M121.58,63.66a19.05,19.05,0,0,0-1.14-2.21,19.29,19.29,0,0,0-1.56-1.92,5.16,5.16,0,0,1,1.76,1.79A5.34,5.34,0,0,1,121.58,63.66Z" style="fill:#263238"></path><path d="M132.22,60.92a6.75,6.75,0,0,0-.52-2.41,6.85,6.85,0,0,0-1.52-1.93,1.65,1.65,0,0,1,.63.39,4.24,4.24,0,0,1,1.1,1.44,4.38,4.38,0,0,1,.41,1.77A1.56,1.56,0,0,1,132.22,60.92Z" style="fill:#263238"></path><path d="M139,61.3a16.31,16.31,0,0,0-.14-1.94,15.87,15.87,0,0,0-.6-1.84,3.38,3.38,0,0,1,.83,1.8A3.45,3.45,0,0,1,139,61.3Z" style="fill:#263238"></path><path d="M135.46,99.19c-.12,0-5.37-2-5.37-2s-1.52,3,.32,4.43,4.08.52,4.43-.31A13.52,13.52,0,0,0,135.46,99.19Z" style="fill:#ff9a6c"></path><path d="M134.28,101.84s-.17.29-.69.45a4.86,4.86,0,0,1-2.19,0h0a3.29,3.29,0,0,1-1.81-1.27,3.33,3.33,0,0,1-.27-2.56,6.14,6.14,0,0,1,.57-1.48l.1-.19.21.08a40.35,40.35,0,0,1,5.48,2.37A39.67,39.67,0,0,1,130,97.38l.31-.11a5.47,5.47,0,0,0-.5,1.34,2.92,2.92,0,0,0,.18,2.18,3,3,0,0,0,1.52,1.14h0a5.47,5.47,0,0,0,2,.14A7,7,0,0,0,134.28,101.84Z" style="fill:#263238"></path></g></svg>
